<?xml version="1.0" encoding="utf-8"?>
<!-- Generator: Adobe Illustrator 25.4.1, SVG Export Plug-In . SVG Version: 6.00 Build 0)  -->
<svg version="1.1" id="EVOLVE_LOGO" xmlns="http://www.w3.org/2000/svg" xmlns:xlink="http://www.w3.org/1999/xlink" x="0px"
	 y="0px" viewBox="0 0 252 73.3" style="enable-background:new 0 0 252 73.3;" xml:space="preserve">
<style type="text/css">
	.st0{fill:#1B3D6E;}
	.st1{fill:#606060;}
	.st2{fill:#003A70;}
</style>
<g>
	<path class="st0" d="M12.4,34.1H31v10.4H0V1.2h30.6v10.3H12.4v6h16.6v10.2H12.4V34.1z"/>
	<path class="st0" d="M51.4,44.6L35.9,1.2h13.5l9.4,29.9l9.4-29.9h13.5L66.1,44.6H51.4z"/>
	<path class="st1" d="M152.8,33.8h16.6v10.7h-28.9V1.2h12.3V33.8z"/>
	<path class="st1" d="M184.3,44.6L168.7,1.2h13.5l9.4,29.9L201,1.2h13.5l-15.6,43.3H184.3z"/>
	<path class="st0" d="M233.4,34.1H252v10.4h-30.9V1.2h30.6v10.3h-18.3v6H250v10.2h-16.6V34.1z"/>
	<rect x="198.1" y="64.2" class="st2" width="53.9" height="1.7"/>
	<rect x="0" y="64.2" class="st2" width="53.8" height="1.7"/>
	<path class="st0" d="M100.5,69.8h7.7v3.1H96.9V56.5h11.2v3.1h-7.6v3.5h6.9v3h-6.9L100.5,69.8z"/>
	<path class="st0" d="M124.7,56.5v3.1h-4.9v13.3h-3.6V59.6h-4.9v-3.1L124.7,56.5z"/>
	<path class="st0" d="M139.5,59.6h-7.3v3.9h7.1v3.1h-7.1v6.3h-3.6V56.5h10.9V59.6z"/>
	<path class="st0" d="M147,64.6c0,0.3,0.2,0.6,0.7,0.8c0.5,0.2,1.1,0.4,1.7,0.5c0.7,0.1,1.3,0.3,2,0.6c0.7,0.2,1.2,0.6,1.7,1.1
		c0.5,0.6,0.7,1.3,0.7,2c0,1.1-0.5,2.2-1.5,2.8c-1.1,0.7-2.4,1-3.7,1c-2.7,0-4.5-0.9-5.5-2.8L146,69c0.4,1,1.4,1.7,2.6,1.5
		c1.2,0,1.8-0.3,1.8-1c0-0.3-0.2-0.6-0.7-0.8c-0.5-0.2-1.1-0.4-1.7-0.5c-0.7-0.2-1.3-0.4-2-0.6c-0.6-0.2-1.2-0.6-1.7-1.1
		c-0.5-0.5-0.7-1.2-0.7-1.9c0-1.1,0.5-2.1,1.4-2.7c1-0.7,2.3-1,3.5-1c1,0,2,0.2,2.9,0.7c0.8,0.4,1.5,1.1,2,1.8l-2.9,1.4
		c-0.4-0.8-1.2-1.2-2.1-1.2c-0.4,0-0.8,0.1-1.1,0.3C147.2,64,147,64.3,147,64.6z"/>
	<path class="st0" d="M12.4,34.1H31v10.4H0V1.2h30.6v10.3H12.4v6h16.6v10.2H12.4V34.1z"/>
	<path class="st0" d="M51.4,44.6L35.9,1.2h13.5l9.4,29.9l9.4-29.9h13.5L66.1,44.6H51.4z"/>
	<path class="st0" d="M152.8,33.8h16.6v10.7h-28.9V1.2h12.3V33.8z"/>
	<path class="st0" d="M184.3,44.6L168.7,1.2h13.5l9.4,29.9L201,1.2h13.5l-15.6,43.3H184.3z"/>
	<rect x="196.4" y="64.2" class="st0" width="55.6" height="1.7"/>
	<rect x="0" y="64.2" class="st0" width="53.8" height="1.7"/>
	<path class="st0" d="M100.5,69.8h7.7v3.1H96.9V56.5h11.2v3.1h-7.6v3.5h6.9v3h-6.9L100.5,69.8z"/>
	<path class="st0" d="M124.7,56.5v3.1h-4.9v13.3h-3.6V59.6h-4.9v-3.1L124.7,56.5z"/>
	<path class="st0" d="M139.5,59.6h-7.3v3.9h7.1v3.1h-7.1v6.3h-3.6V56.5h10.9V59.6z"/>
	<path class="st0" d="M147,64.6c0,0.3,0.2,0.6,0.7,0.8c0.5,0.2,1.1,0.4,1.7,0.5c0.7,0.1,1.3,0.3,2,0.6c0.7,0.2,1.2,0.6,1.7,1.1
		c0.5,0.6,0.7,1.3,0.7,2c0,1.1-0.5,2.2-1.5,2.8c-1.1,0.7-2.4,1-3.7,1c-2.7,0-4.5-0.9-5.5-2.8L146,69c0.4,1,1.4,1.7,2.6,1.5
		c1.2,0,1.8-0.3,1.8-1c0-0.3-0.2-0.6-0.7-0.8c-0.5-0.2-1.1-0.4-1.7-0.5c-0.7-0.2-1.3-0.4-2-0.6c-0.6-0.2-1.2-0.6-1.7-1.1
		c-0.5-0.5-0.7-1.2-0.7-1.9c0-1.1,0.5-2.1,1.4-2.7c1-0.7,2.3-1,3.5-1c1,0,2,0.2,2.9,0.7c0.8,0.4,1.5,1.1,2,1.8l-2.9,1.4
		c-0.4-0.8-1.2-1.2-2.1-1.2c-0.4,0-0.8,0.1-1.1,0.3C147.2,64,147,64.3,147,64.6z"/>
	<path class="st0" d="M132.9,15.7C130.7,8.6,125.1,3,118,0.9c0,0-1.6-0.9-7.3-0.9H105c0,0-8.6-0.8-16,7.2c-7.4,8-6,16.6-6,16.6
		c0.2,5.9,2.7,11.6,7,15.7c4.1,4,9.7,6.3,15.4,6.2l4.9,0.1c0,0,12.4,1.2,19.6-9.7S132.9,15.7,132.9,15.7z M108.6,37.1
		c-10.9-3.3-10.7-14.2-10.7-14.2c0.7-12.2,10.7-14.2,10.7-14.2c10.8,3.9,10.4,13.8,10.4,13.8C118.7,34.5,108.6,37.1,108.6,37.1z
		 M111.4,44.7c0,0,15.6-4.8,15.6-21.5c0,0,0.3-15.1-15-15.9c0,0-12.9-1-14.9,13.9c0,0-2,11,9.5,16.2c0,0-12.6,1.5-15.4-12.3
		c0,0-2.1-10.6,8-19.5C104.4,1.4,111.5,0,118,2c11,3.4,14.5,14,15,19.8S129.6,44.1,111.4,44.7L111.4,44.7z"/>
</g>
</svg>
